<svg width="22" height="22" viewBox="0 0 22 22" fill="none" xmlns="http://www.w3.org/2000/svg">
<path fill-rule="evenodd" clip-rule="evenodd" d="M20.7074 0.292893C21.0979 0.683417 21.0979 1.31658 20.7074 1.70711L19.4145 3L21.7074 5.29289C22.0979 5.68342 22.0979 6.31658 21.7074 6.70711L18.2074 10.2071C17.8169 10.5976 17.1837 10.5976 16.7932 10.2071L14.5003 7.91421L11.7538 10.6607C12.0613 11.0765 12.3187 11.5285 12.52 12.0075C12.852 12.7978 13.0244 13.646 13.0273 14.5033C13.0302 15.3605 12.8634 16.2099 12.5367 17.0024C12.21 17.795 11.7297 18.5151 11.1235 19.1213C10.5174 19.7274 9.79726 20.2077 9.00471 20.5344C8.21216 20.8612 7.36281 21.0279 6.50556 21.025C5.64831 21.0221 4.80009 20.8497 4.00974 20.5177C3.2194 20.1857 2.50254 19.7006 1.90045 19.0904L1.89295 19.0828C0.708918 17.8568 0.0537954 16.2149 0.0686051 14.5106C0.0834148 12.8063 0.767013 11.176 1.97217 9.97089C3.17732 8.76574 4.8076 8.08214 6.51188 8.06733C7.8847 8.0554 9.21706 8.47819 10.3241 9.26194L19.2932 0.292893C19.6837 -0.0976311 20.3169 -0.0976311 20.7074 0.292893ZM18.0003 4.41421L15.9145 6.5L17.5003 8.08579L19.5861 6L18.0003 4.41421ZM11.0964 11.3181C10.7196 11.6949 10.1156 11.7088 9.72213 11.3559C9.71329 11.347 9.70441 11.3382 9.6955 11.3293C9.69298 11.3268 9.69045 11.3243 9.68792 11.3218L10.3887 10.6116M3.32787 17.6895C2.51049 16.8412 2.05829 15.7061 2.06853 14.528C2.07878 13.3481 2.55204 12.2194 3.38638 11.3851C4.22072 10.5508 5.34937 10.0775 6.52926 10.0673C7.70914 10.057 8.84585 10.5106 9.69456 11.3303C9.70363 11.339 9.71282 11.3476 9.72213 11.3559C10.1285 11.7656 10.4525 12.2498 10.6761 12.7821C10.906 13.3293 11.0253 13.9165 11.0273 14.51C11.0293 15.1035 10.9139 15.6915 10.6877 16.2402C10.4615 16.7889 10.129 17.2874 9.70931 17.707C9.28966 18.1267 8.79113 18.4592 8.24244 18.6854C7.69375 18.9116 7.10574 19.027 6.51226 19.025C5.91877 19.023 5.33155 18.9037 4.78439 18.6738C4.23887 18.4446 3.74393 18.1101 3.32787 17.6895ZM3.32787 17.6895L3.33156 17.6933L2.61227 18.388L3.3241 17.6856L3.32787 17.6895ZM11.0964 11.3181L11.0974 11.3171Z" fill="white"/>
<path d="M9.72213 11.3559C10.1156 11.7088 10.7196 11.6949 11.0964 11.3181L10.3887 10.6116L9.68792 11.3218L9.6955 11.3293L9.72213 11.3559Z" fill="white"/>
</svg>
