<svg width="22" height="17" viewBox="0 0 22 17" fill="none" xmlns="http://www.w3.org/2000/svg">
<path fill-rule="evenodd" clip-rule="evenodd" d="M1.83333 2.75C1.83333 2.24374 2.24374 1.83333 2.75 1.83333H19.25C19.7563 1.83333 20.1667 2.24374 20.1667 2.75V5.5H1.83333V2.75ZM0 6.41667V2.75C0 1.23122 1.23122 0 2.75 0H19.25C20.7688 0 22 1.23122 22 2.75V6.41667V13.75C22 15.2688 20.7688 16.5 19.25 16.5H2.75C1.23122 16.5 0 15.2688 0 13.75V6.41667ZM20.1667 7.33333V13.75C20.1667 14.2563 19.7563 14.6667 19.25 14.6667H2.75C2.24374 14.6667 1.83333 14.2563 1.83333 13.75V7.33333H20.1667Z" fill="white"/>
</svg>
