<svg width="20" height="20" viewBox="0 0 20 20" fill="none" xmlns="http://www.w3.org/2000/svg">
<path fill-rule="evenodd" clip-rule="evenodd" d="M15.2071 2.81365C15.4174 2.6047 15.7026 2.48731 16 2.48731C16.1473 2.48731 16.2931 2.51613 16.4291 2.57212C16.5652 2.62812 16.6888 2.71019 16.7929 2.81365C16.897 2.91711 16.9796 3.03994 17.036 3.17512C17.0923 3.31031 17.1213 3.45519 17.1213 3.60151C17.1213 3.74783 17.0923 3.89272 17.036 4.0279C16.9796 4.16308 16.897 4.28591 16.7929 4.38937L4.48877 16.6154L2.37439 17.1407L2.90299 15.0397L15.2071 2.81365ZM16 0.5C15.1722 0.5 14.3783 0.826765 13.7929 1.40841L1.29291 13.8291C1.16476 13.9564 1.07384 14.116 1.02988 14.2907L0.0298787 18.2653C-0.055315 18.6039 0.0445341 18.9621 0.292914 19.2089C0.541295 19.4557 0.901782 19.555 1.24256 19.4703L5.24256 18.4767C5.41839 18.433 5.57897 18.3426 5.70713 18.2153L18.2071 5.79461C18.497 5.50661 18.7269 5.1647 18.8837 4.78841C19.0406 4.41212 19.1213 4.00881 19.1213 3.60151C19.1213 3.19422 19.0406 2.79091 18.8837 2.41461C18.7269 2.03832 18.497 1.69641 18.2071 1.40841C17.9173 1.12041 17.5732 0.891954 17.1945 0.736089C16.8158 0.580223 16.4099 0.5 16 0.5ZM10 17.5127C9.44771 17.5127 9 17.9575 9 18.5063C9 19.0551 9.44771 19.5 10 19.5H19C19.5523 19.5 20 19.0551 20 18.5063C20 17.9575 19.5523 17.5127 19 17.5127H10Z" fill="white"/>
</svg>
