<svg width="18" height="20" viewBox="0 0 18 20" fill="none" xmlns="http://www.w3.org/2000/svg">
<path fill-rule="evenodd" clip-rule="evenodd" d="M6.5636 2.08445C6.73239 1.91396 6.96131 1.81818 7.2 1.81818H10.8C11.0387 1.81818 11.2676 1.91396 11.4364 2.08445C11.6052 2.25494 11.7 2.48617 11.7 2.72727V3.63636H6.3V2.72727C6.3 2.48617 6.39482 2.25494 6.5636 2.08445ZM4.5 3.63636V2.72727C4.5 2.00395 4.78446 1.31026 5.29081 0.7988C5.79716 0.287337 6.48392 0 7.2 0H10.8C11.5161 0 12.2028 0.287337 12.7092 0.7988C13.2155 1.31026 13.5 2.00395 13.5 2.72727V3.63636H15.3H17.1C17.5971 3.63636 18 4.04338 18 4.54545C18 5.04753 17.5971 5.45455 17.1 5.45455H16.2V17.2727C16.2 17.996 15.9155 18.6897 15.4092 19.2012C14.9028 19.7127 14.2161 20 13.5 20H4.5C3.78391 20 3.09716 19.7127 2.59081 19.2012C2.08446 18.6897 1.8 17.996 1.8 17.2727V5.45455H0.9C0.402944 5.45455 0 5.04753 0 4.54545C0 4.04338 0.402944 3.63636 0.9 3.63636H2.7H4.5ZM3.6 5.45455V17.2727C3.6 17.5138 3.69482 17.7451 3.8636 17.9156C4.03239 18.086 4.26131 18.1818 4.5 18.1818H13.5C13.7387 18.1818 13.9676 18.086 14.1364 17.9156C14.3052 17.7451 14.4 17.5138 14.4 17.2727V5.45455H12.6H5.4H3.6Z" fill="white"/>
</svg>
