<svg width="14" height="24" viewBox="0 0 14 24" fill="none" xmlns="http://www.w3.org/2000/svg">
<path fill-rule="evenodd" clip-rule="evenodd" d="M7 0C7.55228 0 8 0.447715 8 1V23C8 23.5523 7.55228 24 7 24C6.44772 24 6 23.5523 6 23V1C6 0.447715 6.44772 0 7 0Z" fill="white"/>
<path fill-rule="evenodd" clip-rule="evenodd" d="M1.31802 5.31802C2.16193 4.47411 3.30653 4 4.5 4H12C12.5523 4 13 4.44772 13 5C13 5.55228 12.5523 6 12 6H4.5C3.83696 6 3.20107 6.26339 2.73223 6.73223C2.26339 7.20107 2 7.83696 2 8.5C2 9.16304 2.26339 9.79893 2.73223 10.2678C3.20107 10.7366 3.83696 11 4.5 11H9.5C10.6935 11 11.8381 11.4741 12.682 12.318C13.5259 13.1619 14 14.3065 14 15.5C14 16.6935 13.5259 17.8381 12.682 18.682C11.8381 19.5259 10.6935 20 9.5 20H1C0.447715 20 0 19.5523 0 19C0 18.4477 0.447715 18 1 18H9.5C10.163 18 10.7989 17.7366 11.2678 17.2678C11.7366 16.7989 12 16.163 12 15.5C12 14.837 11.7366 14.2011 11.2678 13.7322C10.7989 13.2634 10.163 13 9.5 13H4.5C3.30653 13 2.16193 12.5259 1.31802 11.682C0.474106 10.8381 0 9.69347 0 8.5C0 7.30653 0.474106 6.16193 1.31802 5.31802Z" fill="white"/>
</svg>
