<svg width="18" height="20" viewBox="0 0 18 20" fill="none" xmlns="http://www.w3.org/2000/svg">
<path fill-rule="evenodd" clip-rule="evenodd" d="M9.55255 0.191498C9.22755 -0.0638327 8.77245 -0.0638327 8.44745 0.191498L0.347453 6.55513C0.128226 6.72737 0 6.99219 0 7.27273V17.2727C0 17.996 0.284463 18.6897 0.790812 19.2012C1.29716 19.7127 1.98391 20 2.7 20H6.3H11.7H15.3C16.0161 20 16.7028 19.7127 17.2092 19.2012C17.7155 18.6897 18 17.996 18 17.2727V7.27273C18 6.99219 17.8718 6.72737 17.6525 6.55513L9.55255 0.191498ZM12.6 18.1818H15.3C15.5387 18.1818 15.7676 18.086 15.9364 17.9156C16.1052 17.7451 16.2 17.5138 16.2 17.2727V7.71735L9 2.06078L1.8 7.71735V17.2727C1.8 17.5138 1.89482 17.7451 2.0636 17.9156C2.23239 18.086 2.46131 18.1818 2.7 18.1818H5.4V10C5.4 9.49792 5.80294 9.09091 6.3 9.09091H11.7C12.1971 9.09091 12.6 9.49792 12.6 10V18.1818ZM7.2 18.1818V10.9091H10.8V18.1818H7.2Z" fill="white"/>
</svg>
